<svg width="154" height="58" viewBox="0 0 154 58" fill="none" xmlns="http://www.w3.org/2000/svg">
<path d="M82.6542 25.4074C82.9011 25.4074 83.148 25.3457 83.3332 25.2839C83.5184 25.2222 83.7035 25.0988 83.827 24.9136C83.9505 24.7284 84.0739 24.5432 84.1356 24.358C84.1974 24.1111 84.2591 23.8642 84.2591 23.6173V19.7284H85.185V23.6173C85.185 23.9877 85.1233 24.358 84.9998 24.6667C84.8764 24.9753 84.6912 25.2839 84.506 25.4691C84.3208 25.6543 84.0122 25.9012 83.7035 26.0247C83.3949 26.1481 83.0245 26.2099 82.6542 26.2099C82.2838 26.2099 81.9134 26.1481 81.6048 26.0247C81.2961 25.9012 80.9875 25.716 80.8023 25.4691C80.5554 25.2222 80.4319 24.9753 80.3085 24.6667C80.185 24.358 80.1233 23.9877 80.1233 23.6173V19.7284H81.0492V23.6173C81.0492 23.8642 81.1109 24.1111 81.1727 24.358C81.2344 24.6049 81.3579 24.7901 81.4813 24.9136C81.6048 25.0988 81.79 25.2222 81.9751 25.2839C82.1603 25.4074 82.3455 25.4074 82.6542 25.4074Z" fill="#123274"/>
<path d="M87.3453 19.7284C87.407 19.7284 87.407 19.7901 87.4687 19.8519L91.1107 24.6049C91.1107 24.5432 91.1107 24.4198 91.1107 24.358C91.1107 24.2963 91.1107 24.1728 91.1107 24.1111V19.7284H91.9132V26.1482H91.4194C91.3576 26.1482 91.2959 26.1482 91.2342 26.0864C91.1724 26.0864 91.1107 26.0247 91.1107 25.963L87.4687 21.2099C87.4687 21.2716 87.4687 21.3951 87.4687 21.4568C87.4687 21.5185 87.4687 21.5802 87.4687 21.642V26.0864H86.6663V19.7284H87.1601C87.2835 19.7284 87.3453 19.7284 87.3453 19.7284Z" fill="#123274"/>
<path d="M94.4443 26.1482H93.5184V19.7284H94.4443V26.1482Z" fill="#123274"/>
<path d="M95.2468 19.7284H95.9876C96.0493 19.7284 96.111 19.7284 96.1728 19.7901C96.2345 19.8519 96.2345 19.9136 96.2962 19.9753L98.0863 24.4198C98.1481 24.5432 98.1481 24.6667 98.2098 24.7901C98.2715 24.9136 98.2715 25.037 98.3332 25.1605C98.3332 25.037 98.395 24.9136 98.4567 24.7901C98.5184 24.6667 98.5184 24.5432 98.5802 24.4198L100.37 19.9753C100.37 19.9136 100.432 19.8519 100.494 19.8519C100.555 19.7901 100.617 19.7901 100.679 19.7901H101.42L98.8271 26.2099H97.9629L95.2468 19.7284Z" fill="#123274"/>
<path d="M106.111 19.7284V20.4691H103.086V22.5679H105.556V23.3086H103.086V25.4691H106.173V26.2099H102.161V19.7284H106.111Z" fill="#123274"/>
<path d="M108.086 23.4938V26.1481H107.16V19.7284H109.012C109.444 19.7284 109.753 19.7901 110.062 19.8519C110.37 19.9136 110.617 20.037 110.802 20.2222C110.988 20.4074 111.173 20.5926 111.234 20.7778C111.296 21.0247 111.358 21.2716 111.358 21.5185C111.358 21.7654 111.296 21.9506 111.234 22.1358C111.173 22.321 111.049 22.5062 110.926 22.6914C110.802 22.8765 110.617 23 110.432 23.1235C110.247 23.2469 110 23.3086 109.753 23.3704C109.876 23.4321 110 23.5556 110.062 23.679L111.913 26.2099H111.111C110.926 26.2099 110.802 26.1481 110.741 26.0247L109.136 23.7407C109.074 23.679 109.012 23.6173 108.951 23.5556C108.889 23.4938 108.827 23.4938 108.704 23.4938H108.086V23.4938ZM108.086 22.8148H108.951C109.197 22.8148 109.444 22.8148 109.63 22.7531C109.815 22.6914 110 22.6296 110.123 22.5062C110.247 22.3827 110.37 22.2593 110.432 22.1358C110.494 22.0123 110.555 21.8272 110.555 21.642C110.555 21.2716 110.432 20.963 110.185 20.7778C109.938 20.5926 109.568 20.4691 109.074 20.4691H108.148V22.8148H108.086Z" fill="#123274"/>
<path d="M116.111 20.7778C116.111 20.8395 116.049 20.8395 116.049 20.9013C116.049 20.963 115.987 20.963 115.926 20.963C115.864 20.963 115.802 20.963 115.741 20.9013C115.679 20.8395 115.555 20.7778 115.494 20.7161C115.37 20.6544 115.247 20.5926 115.123 20.5309C115 20.4692 114.815 20.4692 114.629 20.4692C114.444 20.4692 114.259 20.4692 114.136 20.5309C114.012 20.5926 113.889 20.6544 113.765 20.7161C113.642 20.7778 113.58 20.9013 113.518 21.0247C113.457 21.1482 113.457 21.2716 113.457 21.3951C113.457 21.5803 113.518 21.7037 113.58 21.8272C113.642 21.9507 113.765 22.0124 113.95 22.1358C114.074 22.1976 114.259 22.2593 114.444 22.321C114.629 22.3828 114.815 22.4445 115 22.5062C115.185 22.5679 115.37 22.6297 115.555 22.7531C115.74 22.8148 115.926 22.9383 116.049 23.0618C116.173 23.1852 116.296 23.3704 116.42 23.5556C116.481 23.7408 116.543 23.9877 116.543 24.2346C116.543 24.5432 116.481 24.7902 116.42 25.0371C116.296 25.284 116.173 25.4692 115.987 25.6544C115.802 25.8395 115.555 25.963 115.308 26.0865C115.061 26.2099 114.753 26.2716 114.382 26.2716C114.197 26.2716 113.95 26.2716 113.765 26.2099C113.58 26.1482 113.395 26.0865 113.21 26.0247C113.024 25.963 112.901 25.8395 112.716 25.7778C112.592 25.6544 112.407 25.5309 112.284 25.4074L112.531 24.9753C112.531 24.9136 112.592 24.9136 112.592 24.9136C112.654 24.9136 112.654 24.8519 112.716 24.8519C112.778 24.8519 112.839 24.9136 112.963 24.9753C113.086 25.0371 113.148 25.0988 113.271 25.2223C113.395 25.3457 113.518 25.3457 113.703 25.4692C113.889 25.5309 114.074 25.5926 114.321 25.5926C114.506 25.5926 114.691 25.5926 114.876 25.5309C115.061 25.4692 115.185 25.4074 115.308 25.284C115.432 25.1605 115.494 25.0371 115.555 24.9136C115.617 24.7902 115.617 24.605 115.617 24.4198C115.617 24.2346 115.555 24.0494 115.494 23.926C115.432 23.8025 115.308 23.679 115.123 23.6173C115 23.5556 114.815 23.4939 114.629 23.4321C114.444 23.3704 114.259 23.3087 114.074 23.2469C113.889 23.1852 113.703 23.1235 113.518 23.0618C113.333 23 113.148 22.8766 113.024 22.7531C112.901 22.6297 112.778 22.4445 112.654 22.2593C112.592 22.0741 112.531 21.8272 112.531 21.5186C112.531 21.2716 112.592 21.0865 112.654 20.8395C112.716 20.6544 112.901 20.4074 113.024 20.284C113.148 20.1605 113.395 19.9753 113.642 19.9136C113.889 19.7902 114.197 19.7902 114.506 19.7902C114.876 19.7902 115.185 19.8519 115.494 19.9753C115.802 20.0988 116.049 20.284 116.296 20.4692L116.111 20.7778Z" fill="#123274"/>
<path d="M118.58 26.1482H117.654V19.7284H118.58V26.1482Z" fill="#123274"/>
<path d="M124.506 19.7284V20.5309H122.469V26.2099H121.543V20.5309H119.506V19.7284H124.506Z" fill="#123274"/>
<path d="M128.21 23.6173V26.1482H127.284V23.6173L124.938 19.7284H125.741C125.802 19.7284 125.864 19.7284 125.926 19.7901C125.987 19.8519 125.987 19.8519 126.049 19.9753L127.469 22.3827C127.531 22.5062 127.592 22.5679 127.592 22.6914C127.654 22.8148 127.654 22.8765 127.716 23C127.778 22.8765 127.778 22.8148 127.839 22.6914C127.901 22.5679 127.901 22.5062 127.963 22.3827L129.383 19.9753C129.383 19.9136 129.444 19.8519 129.506 19.8519C129.568 19.7901 129.629 19.7901 129.691 19.7901H130.494L128.21 23.6173Z" fill="#123274"/>
<path d="M79.4445 30.1605H80.2469C80.3087 30.1605 80.3704 30.1605 80.4321 30.2222C80.4938 30.284 80.4938 30.284 80.5556 30.4074L81.8519 34.7902C81.8519 34.8519 81.9136 34.9753 81.9136 35.0371C81.9136 35.1605 81.9753 35.2223 81.9753 35.3457C81.9753 35.2223 82.0371 35.1605 82.0371 35.0371C82.0371 34.9136 82.0988 34.8519 82.0988 34.7902L83.5803 30.4074C83.5803 30.3457 83.642 30.284 83.7037 30.284C83.7655 30.2222 83.8272 30.2222 83.8889 30.2222H84.1358C84.1976 30.2222 84.2593 30.2222 84.321 30.284C84.3827 30.3457 84.3827 30.4074 84.4445 30.4692L85.9259 34.8519C85.9877 35.0371 86.0494 35.2223 86.0494 35.4074C86.0494 35.284 86.1111 35.2223 86.1111 35.0988C86.1111 35.0371 86.1729 34.9136 86.1729 34.8519L87.4692 30.4692C87.4692 30.4074 87.5309 30.3457 87.5926 30.284C87.6543 30.2222 87.7161 30.2222 87.7778 30.2222H88.5185L86.4815 36.642H85.679L84.0741 31.8272C84.0741 31.7655 84.0741 31.7037 84.0124 31.642C84.0124 31.5803 83.9506 31.5185 83.9506 31.4568C83.9506 31.5803 83.8889 31.7037 83.8889 31.7655L82.284 36.5803H81.4815L79.4445 30.1605Z" fill="#123274"/>
<path d="M95.2468 33.3704C95.2468 33.8642 95.1851 34.2963 94.9999 34.7284C94.8764 35.1605 94.6295 35.4691 94.3826 35.7778C94.074 36.0864 93.7653 36.2716 93.395 36.4568C93.0246 36.642 92.5925 36.7037 92.0987 36.7037C91.6048 36.7037 91.1727 36.642 90.8024 36.4568C90.432 36.2716 90.0616 36.0864 89.8147 35.7778C89.5061 35.4691 89.3209 35.1605 89.1357 34.7284C89.0122 34.2963 88.8888 33.8642 88.8888 33.3704C88.8888 32.8765 88.9505 32.4444 89.1357 32.0741C89.2592 31.642 89.5061 31.3333 89.8147 31.0247C90.1234 30.716 90.432 30.5309 90.8024 30.3457C91.1727 30.1605 91.6048 30.0988 92.0987 30.0988C92.5925 30.0988 93.0246 30.1605 93.395 30.3457C93.7653 30.5309 94.1357 30.716 94.3826 31.0247C94.6913 31.3333 94.8764 31.642 94.9999 32.0741C95.1233 32.4444 95.2468 32.8765 95.2468 33.3704ZM94.2592 33.3704C94.2592 33 94.1974 32.6296 94.074 32.321C93.9505 32.0123 93.8271 31.7654 93.6419 31.5185C93.4567 31.3333 93.2098 31.1481 92.9629 31.0247C92.716 30.9012 92.4073 30.8395 92.0369 30.8395C91.6666 30.8395 91.3579 30.9012 91.111 31.0247C90.8641 31.1481 90.6172 31.2716 90.432 31.5185C90.2468 31.7037 90.0616 32.0123 89.9999 32.321C89.9382 32.6296 89.8147 33 89.8147 33.3704C89.8147 33.7407 89.8764 34.1111 89.9999 34.4197C90.1234 34.7284 90.2468 34.9753 90.432 35.2222C90.6172 35.4074 90.8641 35.5926 91.111 35.716C91.3579 35.8395 91.6666 35.9012 92.0369 35.9012C92.4073 35.9012 92.716 35.8395 92.9629 35.716C93.2098 35.5926 93.4567 35.4691 93.6419 35.2222C93.8271 35.037 94.0122 34.7284 94.074 34.4197C94.1974 34.1111 94.2592 33.7407 94.2592 33.3704Z" fill="#123274"/>
<path d="M97.3457 33.926V36.5803H96.4198V30.1605H98.2717C98.7037 30.1605 99.0124 30.2222 99.321 30.284C99.6297 30.3457 99.8766 30.4692 100.062 30.6543C100.247 30.8395 100.432 31.0247 100.494 31.2099C100.556 31.4568 100.617 31.7037 100.617 31.9506C100.617 32.1976 100.556 32.3827 100.494 32.5679C100.432 32.7531 100.309 32.9383 100.185 33.1235C100.062 33.3087 99.8766 33.4321 99.6914 33.5556C99.5062 33.679 99.2593 33.7408 99.0124 33.8025C99.1358 33.8642 99.2593 33.9877 99.321 34.1111L101.173 36.642H100.37C100.185 36.642 100.062 36.5803 100 36.4568L98.3951 34.1729C98.3334 34.1111 98.2717 34.0494 98.2099 33.9877C98.1482 33.926 98.0865 33.926 97.963 33.926H97.3457V33.926ZM97.3457 33.2469H98.2099C98.4568 33.2469 98.7037 33.2469 98.8889 33.1852C99.0741 33.1235 99.2593 33.0618 99.3828 32.9383C99.5062 32.8148 99.6297 32.6914 99.6914 32.5679C99.7531 32.4445 99.8149 32.2593 99.8149 32.0741C99.8149 31.7037 99.6914 31.3951 99.4445 31.2099C99.1976 31.0247 98.8272 30.9013 98.3334 30.9013H97.4075V33.2469H97.3457Z" fill="#123274"/>
<path d="M102.963 35.8395H105.741V36.642H102.037V30.1605H102.963V35.8395Z" fill="#123274"/>
<path d="M112.222 33.3704C112.222 33.8642 112.161 34.2963 111.975 34.6667C111.79 35.0371 111.605 35.4074 111.296 35.6543C110.988 35.963 110.679 36.1482 110.309 36.3334C109.938 36.4568 109.506 36.5803 109.012 36.5803H106.605V30.1605H109.012C109.506 30.1605 109.938 30.2222 110.309 30.4074C110.679 30.5926 111.049 30.7778 111.296 31.0864C111.605 31.3951 111.79 31.7037 111.975 32.0741C112.099 32.4445 112.222 32.8766 112.222 33.3704ZM111.235 33.3704C111.235 33 111.173 32.6297 111.049 32.321C110.926 32.0124 110.803 31.7655 110.617 31.5185C110.432 31.3334 110.185 31.1482 109.938 31.0247C109.691 30.9013 109.383 30.8395 109.012 30.8395H107.531V35.7778H109.012C109.383 35.7778 109.691 35.7161 109.938 35.5926C110.185 35.4692 110.432 35.3457 110.617 35.0988C110.803 34.9136 110.988 34.605 111.049 34.2963C111.111 33.9877 111.235 33.7408 111.235 33.3704Z" fill="#123274"/>
<path d="M84.6298 45.6543C84.6915 45.6543 84.7532 45.6543 84.7532 45.716L85.1236 46.1481C84.8767 46.4568 84.568 46.7037 84.1359 46.8889C83.7656 47.0741 83.3335 47.1358 82.7779 47.1358C82.2841 47.1358 81.9137 47.0741 81.4816 46.8889C81.1112 46.7037 80.8026 46.5185 80.494 46.2099C80.247 45.9012 80.0001 45.5926 79.8767 45.1605C79.7532 44.7284 79.6298 44.2963 79.6298 43.8025C79.6298 43.3086 79.6915 42.8765 79.8767 42.4444C80.0001 42.0123 80.247 41.7037 80.494 41.395C80.8026 41.0864 81.1112 40.9012 81.4816 40.716C81.852 40.5308 82.2841 40.4691 82.7779 40.4691C83.21 40.4691 83.6421 40.5308 84.0125 40.716C84.3828 40.8395 84.6915 41.0864 84.9384 41.3333L84.6298 41.7654L84.568 41.8271C84.568 41.8271 84.5063 41.8271 84.4446 41.8271C84.3828 41.8271 84.3211 41.8271 84.2594 41.7654C84.1977 41.7037 84.0742 41.642 83.9507 41.5802C83.8273 41.5185 83.6421 41.4568 83.4569 41.395C83.2717 41.3333 83.0248 41.3333 82.7779 41.3333C82.4693 41.3333 82.1606 41.395 81.9137 41.5185C81.6668 41.642 81.4199 41.7654 81.2347 42.0123C81.0495 42.1975 80.8643 42.5062 80.8026 42.8148C80.6791 43.1234 80.6174 43.4938 80.6174 43.8642C80.6174 44.2345 80.6791 44.6049 80.8026 44.9136C80.9261 45.2222 81.0495 45.4691 81.2347 45.716C81.4199 45.9629 81.6668 46.0864 81.9137 46.2099C82.1606 46.3333 82.4693 46.395 82.7779 46.395C82.9631 46.395 83.1483 46.395 83.2717 46.3333C83.3952 46.3333 83.5804 46.2716 83.7038 46.2099C83.8273 46.1481 83.9507 46.0864 84.0742 46.0247C84.1977 45.9629 84.3211 45.8395 84.3828 45.7778L84.4446 45.716C84.568 45.6543 84.6298 45.6543 84.6298 45.6543Z" fill="#123274"/>
<path d="M88.5188 46.2715C88.7657 46.2715 89.0126 46.2098 89.1978 46.1481C89.383 46.0864 89.5682 45.9629 89.6916 45.7777C89.8151 45.5925 89.9385 45.4073 90.0003 45.2222C90.062 44.9752 90.1237 44.7283 90.1237 44.4814V40.5925H91.0497V44.4814C91.0497 44.8518 90.9879 45.2222 90.8645 45.5308C90.741 45.8394 90.5558 46.1481 90.3706 46.3333C90.1854 46.5185 89.8768 46.7654 89.5682 46.8888C89.2595 47.0123 88.8892 47.074 88.5188 47.074C88.1484 47.074 87.778 47.0123 87.4694 46.8888C87.1608 46.7654 86.8521 46.5802 86.6669 46.3333C86.42 46.0864 86.2966 45.8394 86.1731 45.5308C86.0496 45.2222 85.9879 44.8518 85.9879 44.4814V40.5925H86.9138V44.4814C86.9138 44.7283 86.9756 44.9752 87.0373 45.2222C87.099 45.4691 87.2225 45.6543 87.3459 45.7777C87.4694 45.9629 87.6546 46.0864 87.8398 46.1481C88.025 46.2098 88.2719 46.2715 88.5188 46.2715Z" fill="#123274"/>
<path d="M93.5188 44.6049V47.0123H92.5929V40.5925H94.5065C94.9386 40.5925 95.2472 40.6543 95.5559 40.716C95.8645 40.8394 96.1114 40.9629 96.2966 41.1481C96.4818 41.3333 96.667 41.5185 96.7287 41.7654C96.7904 42.0123 96.8522 42.2592 96.8522 42.5678C96.8522 42.8765 96.7904 43.1234 96.667 43.3703C96.5435 43.6172 96.4201 43.8641 96.2349 44.0493C96.0497 44.2345 95.8028 44.358 95.4941 44.4814C95.1855 44.6049 94.8769 44.6049 94.4448 44.6049H93.5188V44.6049ZM93.5188 43.9259H94.5065C94.7534 43.9259 94.9386 43.8641 95.1238 43.8024C95.309 43.7407 95.4941 43.679 95.6176 43.5555C95.7411 43.432 95.8645 43.3086 95.9262 43.1234C95.988 42.9382 96.0497 42.8148 96.0497 42.5678C96.0497 42.3827 96.0497 42.1975 95.988 42.0123C95.9262 41.8271 95.8645 41.7036 95.6793 41.5802C95.5559 41.4567 95.3707 41.395 95.1855 41.3333C95.0003 41.2715 94.7534 41.2715 94.5065 41.2715H93.5188V43.9259Z" fill="#123274"/>
<path d="M84.6298 56.0864C84.6915 56.0864 84.7532 56.0864 84.7532 56.1482L85.1236 56.5802C84.8767 56.8889 84.568 57.1358 84.1359 57.321C83.7656 57.5062 83.3335 57.5679 82.7779 57.5679C82.2841 57.5679 81.9137 57.5062 81.4816 57.321C81.1112 57.1358 80.8026 56.9506 80.494 56.642C80.247 56.3333 80.0001 56.0247 79.8767 55.5926C79.7532 55.1605 79.6298 54.7284 79.6298 54.2346C79.6298 53.7407 79.6915 53.3086 79.8767 52.8765C80.0001 52.4445 80.247 52.1358 80.494 51.8272C80.8026 51.5185 81.1112 51.3333 81.4816 51.1482C81.852 50.963 82.2841 50.9012 82.7779 50.9012C83.21 50.9012 83.6421 50.963 84.0125 51.1482C84.3828 51.2716 84.6915 51.5185 84.9384 51.7654L84.6298 52.1975L84.568 52.2593C84.568 52.2593 84.5063 52.2593 84.4446 52.2593C84.3828 52.2593 84.3211 52.2593 84.2594 52.1975C84.1977 52.1358 84.0742 52.0741 83.9507 52.0124C83.8273 51.9506 83.6421 51.8889 83.4569 51.8272C83.2717 51.7654 83.0248 51.7654 82.7779 51.7654C82.4693 51.7654 82.1606 51.8272 81.9137 51.9506C81.6668 52.0741 81.4199 52.1975 81.2347 52.4445C81.0495 52.6296 80.8643 52.9383 80.8026 53.2469C80.6791 53.5556 80.6174 53.9259 80.6174 54.2963C80.6174 54.6667 80.6791 55.037 80.8026 55.3457C80.9261 55.6543 81.0495 55.9012 81.2347 56.1482C81.4199 56.3951 81.6668 56.5185 81.9137 56.642C82.1606 56.7654 82.4693 56.8272 82.7779 56.8272C82.9631 56.8272 83.1483 56.8272 83.2717 56.7654C83.3952 56.7654 83.5804 56.7037 83.7038 56.642C83.8273 56.5803 83.9507 56.5185 84.0742 56.4568C84.1977 56.3951 84.3211 56.2716 84.3828 56.2099L84.4446 56.1482C84.568 56.0864 84.6298 56.0864 84.6298 56.0864Z" fill="#123274"/>
<path d="M92.0372 54.2346C92.0372 54.7284 91.9755 55.1605 91.7903 55.5926C91.6669 56.0247 91.4199 56.3334 91.173 56.642C90.8644 56.9507 90.5557 57.1359 90.1854 57.321C89.815 57.5062 89.3829 57.568 88.8891 57.568C88.3952 57.568 87.9631 57.5062 87.5928 57.321C87.2224 57.1359 86.852 56.9507 86.6051 56.642C86.2965 56.3334 86.1113 56.0247 85.9261 55.5926C85.8027 55.1605 85.6792 54.7284 85.6792 54.2346C85.6792 53.7408 85.7409 53.3087 85.9261 52.9383C86.0496 52.5062 86.2965 52.1976 86.6051 51.8889C86.9138 51.5803 87.2224 51.3951 87.5928 51.2099C87.9631 51.0247 88.3952 50.963 88.8891 50.963C89.3829 50.963 89.815 51.0247 90.1854 51.2099C90.5557 51.3951 90.9261 51.5803 91.173 51.8889C91.4817 52.1976 91.6669 52.5062 91.7903 52.9383C91.9755 53.3087 92.0372 53.7408 92.0372 54.2346ZM91.1113 54.2346C91.1113 53.8643 91.0496 53.4939 90.9261 53.1852C90.8027 52.8766 90.6792 52.6297 90.494 52.3828C90.3088 52.1976 90.0619 52.0124 89.815 51.8889C89.5681 51.7655 89.2594 51.7038 88.8891 51.7038C88.5187 51.7038 88.2101 51.7655 87.9631 51.8889C87.7162 52.0124 87.4693 52.1359 87.2841 52.3828C87.0989 52.568 86.9138 52.8766 86.852 53.1852C86.7903 53.4939 86.6668 53.8643 86.6668 54.2346C86.6668 54.605 86.7286 54.9754 86.852 55.284C86.9755 55.5926 87.0989 55.8396 87.2841 56.0865C87.4693 56.2717 87.7162 56.4568 87.9631 56.5803C88.2101 56.7038 88.5187 56.7655 88.8891 56.7655C89.2594 56.7655 89.5681 56.7038 89.815 56.5803C90.0619 56.4568 90.3088 56.3334 90.494 56.0865C90.6792 55.9013 90.8644 55.5926 90.9261 55.284C91.0496 54.9754 91.1113 54.605 91.1113 54.2346Z" fill="#123274"/>
<path d="M96.6054 55.5308C96.6671 55.4691 96.6671 55.3456 96.7288 55.2839C96.7906 55.2222 96.7906 55.0987 96.8523 55.037L99.0128 51.1481C99.0745 51.0864 99.0745 51.0247 99.1362 51.0247C99.198 51.0247 99.2597 51.0247 99.3214 51.0247H100V57.4444H99.198V52.8148C99.198 52.7531 99.198 52.6913 99.198 52.6296C99.198 52.5679 99.198 52.5061 99.198 52.3827L97.0375 56.3333C96.9758 56.395 96.9758 56.4568 96.914 56.5185C96.8523 56.5802 96.7906 56.5802 96.7288 56.5802H96.6054C96.4819 56.5802 96.3585 56.5185 96.2967 56.395L94.0745 52.4444C94.0745 52.5061 94.0745 52.6296 94.0745 52.6913C94.0745 52.7531 94.0745 52.8148 94.0745 52.9382V57.5679H93.2103V51.0247H93.8893C93.9511 51.0247 94.0128 51.0247 94.0745 51.0247C94.1362 51.0247 94.1363 51.0864 94.198 51.1481L96.3585 55.037C96.4819 55.2222 96.5437 55.3456 96.6054 55.5308Z" fill="#123274"/>
<path d="M101.543 57.4444V51.0247H103.642C104.012 51.0247 104.383 51.0864 104.691 51.1481C105 51.2098 105.185 51.3333 105.37 51.4568C105.555 51.5802 105.679 51.7654 105.802 52.0123C105.864 52.1975 105.926 52.4444 105.926 52.6913C105.926 52.8765 105.926 53 105.864 53.1234C105.802 53.2469 105.741 53.4321 105.617 53.5555C105.494 53.679 105.37 53.8024 105.247 53.8642C105.123 53.9876 104.938 54.0493 104.691 54.1111C105.185 54.2345 105.494 54.358 105.741 54.6049C105.988 54.8518 106.111 55.1605 106.111 55.5926C106.111 55.8395 106.049 56.1481 105.988 56.3333C105.926 56.5185 105.741 56.7654 105.555 56.8889C105.37 57.0123 105.123 57.1975 104.815 57.2592C104.506 57.321 104.197 57.3827 103.827 57.3827H101.543V57.4444ZM102.469 53.8642H103.58C103.827 53.8642 104.012 53.8642 104.197 53.8024C104.383 53.7407 104.506 53.679 104.63 53.6173C104.753 53.5555 104.815 53.4321 104.876 53.3086C104.938 53.1852 104.938 53 104.938 52.8765C104.938 52.5061 104.815 52.2592 104.63 52.074C104.383 51.8889 104.074 51.8271 103.58 51.8271H102.469V53.8642ZM102.469 54.5432V56.7037H103.827C104.074 56.7037 104.259 56.7037 104.444 56.6419C104.63 56.5802 104.753 56.5185 104.876 56.395C105 56.2716 105.062 56.1481 105.123 56.0247C105.185 55.9012 105.185 55.716 105.185 55.5926C105.185 55.2839 105.062 55.037 104.815 54.8518C104.568 54.6666 104.259 54.5432 103.765 54.5432H102.469Z" fill="#123274"/>
<path d="M112.593 57.4445H111.852C111.79 57.4445 111.729 57.4445 111.667 57.3828C111.605 57.321 111.605 57.2593 111.543 57.1976L110.988 55.7161H108.148L107.593 57.1976C107.593 57.2593 107.531 57.321 107.469 57.321C107.408 57.3828 107.346 57.3828 107.284 57.3828H106.543L109.136 50.963H110.062L112.593 57.4445ZM108.395 55.0371H110.741L109.753 52.5062C109.692 52.4445 109.692 52.321 109.63 52.1976C109.568 52.0741 109.568 51.9507 109.506 51.8272C109.445 51.9507 109.445 52.0741 109.383 52.1976C109.321 52.321 109.321 52.3828 109.26 52.5062L108.395 55.0371Z" fill="#123274"/>
<path d="M117.778 51.0247V51.8271H115.741V57.5061H114.815V51.8271H112.778V51.0247H117.778Z" fill="#123274"/>
<path d="M124.259 52.0123C124.259 52.074 124.198 52.074 124.198 52.1358C124.198 52.1975 124.136 52.1975 124.074 52.1975C124.012 52.1975 123.951 52.1975 123.889 52.1358C123.827 52.074 123.704 52.0123 123.642 51.9506C123.519 51.8889 123.395 51.8271 123.272 51.7654C123.148 51.7037 122.963 51.7037 122.778 51.7037C122.593 51.7037 122.408 51.7037 122.284 51.7654C122.161 51.8271 122.037 51.8889 121.914 51.9506C121.79 52.0123 121.729 52.1358 121.667 52.2592C121.605 52.3827 121.605 52.5061 121.605 52.6296C121.605 52.8148 121.667 52.9382 121.729 53.0617C121.79 53.1852 121.914 53.2469 122.099 53.3703C122.222 53.4321 122.408 53.4938 122.593 53.5555C122.778 53.6173 122.963 53.679 123.148 53.7407C123.333 53.8024 123.519 53.8642 123.704 53.9876C123.889 54.0493 124.074 54.1728 124.198 54.2963C124.321 54.4197 124.445 54.6049 124.568 54.7901C124.63 54.9753 124.691 55.2222 124.691 55.4691C124.691 55.7777 124.63 56.0247 124.568 56.2716C124.445 56.5185 124.321 56.7037 124.136 56.8889C123.951 57.074 123.704 57.1975 123.457 57.321C123.21 57.4444 122.901 57.5061 122.531 57.5061C122.346 57.5061 122.099 57.5061 121.914 57.4444C121.729 57.3827 121.543 57.321 121.358 57.2592C121.173 57.1975 121.05 57.074 120.864 57.0123C120.741 56.8889 120.556 56.7654 120.432 56.6419L120.679 56.2098C120.679 56.1481 120.741 56.1481 120.741 56.1481C120.803 56.1481 120.803 56.0864 120.864 56.0864C120.926 56.0864 120.988 56.1481 121.111 56.2098C121.235 56.2716 121.296 56.3333 121.42 56.4568C121.543 56.5802 121.667 56.5802 121.852 56.7037C122.037 56.7654 122.222 56.8271 122.469 56.8271C122.654 56.8271 122.84 56.8271 123.025 56.7654C123.21 56.7037 123.333 56.6419 123.457 56.5185C123.58 56.395 123.642 56.2716 123.704 56.1481C123.766 56.0247 123.766 55.8395 123.766 55.6543C123.766 55.4691 123.704 55.2839 123.642 55.1605C123.58 55.037 123.457 54.9135 123.272 54.8518C123.148 54.7901 122.963 54.7284 122.778 54.6666C122.593 54.6049 122.408 54.5432 122.222 54.4814C122.037 54.4197 121.852 54.358 121.667 54.2963C121.482 54.2345 121.296 54.1111 121.173 53.9876C121.05 53.8642 120.926 53.679 120.803 53.4938C120.741 53.3086 120.679 53.0617 120.679 52.7531C120.679 52.5061 120.741 52.321 120.803 52.074C120.864 51.8889 121.05 51.6419 121.173 51.5185C121.296 51.395 121.543 51.2098 121.79 51.1481C122.037 51.0247 122.346 51.0247 122.654 51.0247C123.025 51.0247 123.333 51.0864 123.642 51.2098C123.951 51.3333 124.198 51.5185 124.445 51.7037L124.259 52.0123Z" fill="#123274"/>
<path d="M126.667 55.037V57.4444H125.741V51.0247H127.654C128.087 51.0247 128.395 51.0864 128.704 51.1481C129.012 51.2716 129.259 51.395 129.445 51.5802C129.63 51.7654 129.815 51.9506 129.877 52.1975C129.938 52.4444 130 52.6913 130 53C130 53.3086 129.938 53.5555 129.815 53.8024C129.691 54.0493 129.568 54.2963 129.383 54.4815C129.198 54.6666 128.951 54.7901 128.642 54.9135C128.333 55.037 128.025 55.037 127.593 55.037H126.667ZM126.667 54.2963H127.654C127.901 54.2963 128.087 54.2345 128.272 54.1728C128.457 54.1111 128.642 54.0494 128.766 53.9259C128.889 53.8024 129.012 53.679 129.074 53.4938C129.136 53.3086 129.198 53.1852 129.198 52.9382C129.198 52.7531 129.198 52.5679 129.136 52.3827C129.074 52.1975 129.012 52.074 128.827 51.9506C128.704 51.8271 128.519 51.7654 128.333 51.7037C128.148 51.6419 127.901 51.6419 127.654 51.6419H126.667V54.2963Z" fill="#123274"/>
<path d="M137.099 54.2346C137.099 54.7284 137.037 55.1605 136.852 55.5926C136.728 56.0247 136.481 56.3334 136.235 56.642C135.926 56.9507 135.617 57.1359 135.247 57.321C134.877 57.5062 134.444 57.568 133.951 57.568C133.457 57.568 133.025 57.5062 132.654 57.321C132.284 57.1359 131.914 56.9507 131.667 56.642C131.358 56.3334 131.173 56.0247 130.988 55.5926C130.864 55.1605 130.741 54.7284 130.741 54.2346C130.741 53.7408 130.802 53.3087 130.988 52.9383C131.111 52.5062 131.358 52.1976 131.667 51.8889C131.975 51.5803 132.284 51.3951 132.654 51.2099C133.025 51.0247 133.457 50.963 133.951 50.963C134.444 50.963 134.877 51.0247 135.247 51.2099C135.617 51.3951 135.988 51.5803 136.235 51.8889C136.543 52.1976 136.728 52.5062 136.852 52.9383C137.037 53.3087 137.099 53.7408 137.099 54.2346ZM136.173 54.2346C136.173 53.8643 136.111 53.4939 135.988 53.1852C135.864 52.8766 135.741 52.6297 135.556 52.3828C135.37 52.1976 135.123 52.0124 134.877 51.8889C134.63 51.7655 134.321 51.7038 133.951 51.7038C133.58 51.7038 133.272 51.7655 133.025 51.8889C132.778 52.0124 132.531 52.1359 132.346 52.3828C132.16 52.568 131.975 52.8766 131.914 53.1852C131.852 53.4939 131.728 53.8643 131.728 54.2346C131.728 54.605 131.79 54.9754 131.914 55.284C132.037 55.5926 132.16 55.8396 132.346 56.0865C132.531 56.2717 132.778 56.4568 133.025 56.5803C133.272 56.7038 133.58 56.7655 133.951 56.7655C134.321 56.7655 134.63 56.7038 134.877 56.5803C135.123 56.4568 135.37 56.3334 135.556 56.0865C135.741 55.9013 135.926 55.5926 135.988 55.284C136.111 54.9754 136.173 54.605 136.173 54.2346Z" fill="#123274"/>
<path d="M139.198 54.7901V57.4444H138.272V51.0247H140.124C140.556 51.0247 140.864 51.0864 141.173 51.1481C141.482 51.2098 141.729 51.3333 141.914 51.5185C142.099 51.7037 142.284 51.8889 142.346 52.074C142.408 52.321 142.469 52.5679 142.469 52.8148C142.469 53.0617 142.408 53.2469 142.346 53.4321C142.284 53.6172 142.161 53.8024 142.037 53.9876C141.914 54.1728 141.729 54.2963 141.543 54.4197C141.358 54.5432 141.111 54.6049 140.864 54.6666C140.988 54.7284 141.111 54.8518 141.173 54.9753L143.025 57.5061H142.222C142.037 57.5061 141.914 57.4444 141.852 57.321L140.247 55.037C140.185 54.9753 140.124 54.9135 140.062 54.8518C140 54.7901 139.939 54.7901 139.815 54.7901H139.198V54.7901ZM139.198 54.1111H140.062C140.309 54.1111 140.556 54.1111 140.741 54.0493C140.926 53.9876 141.111 53.9259 141.235 53.8024C141.358 53.679 141.482 53.5555 141.543 53.4321C141.605 53.3086 141.667 53.1234 141.667 52.9382C141.667 52.5679 141.543 52.2592 141.297 52.074C141.05 51.8889 140.679 51.7654 140.185 51.7654H139.26V54.1111H139.198Z" fill="#123274"/>
<path d="M148.271 51.0247V51.8271H146.234V57.5061H145.308V51.8271H143.21V51.0247H148.271Z" fill="#123274"/>
<path d="M152.469 52.0123C152.469 52.074 152.408 52.074 152.408 52.1358C152.408 52.1975 152.346 52.1975 152.284 52.1975C152.223 52.1975 152.161 52.1975 152.099 52.1358C152.037 52.074 151.914 52.0123 151.852 51.9506C151.729 51.8889 151.605 51.8271 151.482 51.7654C151.358 51.7037 151.173 51.7037 150.988 51.7037C150.803 51.7037 150.618 51.7037 150.494 51.7654C150.371 51.8271 150.247 51.8889 150.124 51.9506C150 52.0123 149.939 52.1358 149.877 52.2592C149.815 52.3827 149.815 52.5061 149.815 52.6296C149.815 52.8148 149.877 52.9382 149.939 53.0617C150 53.1852 150.124 53.2469 150.309 53.3703C150.432 53.4321 150.618 53.4938 150.803 53.5555C150.988 53.6173 151.173 53.679 151.358 53.7407C151.544 53.8024 151.729 53.8642 151.914 53.9876C152.099 54.0493 152.284 54.1728 152.408 54.2963C152.531 54.4197 152.655 54.6049 152.778 54.7901C152.84 54.9753 152.902 55.2222 152.902 55.4691C152.902 55.7777 152.84 56.0247 152.778 56.2716C152.655 56.5185 152.531 56.7037 152.346 56.8889C152.161 57.074 151.914 57.1975 151.667 57.321C151.42 57.4444 151.111 57.5061 150.741 57.5061C150.556 57.5061 150.309 57.5061 150.124 57.4444C149.939 57.3827 149.753 57.321 149.568 57.2592C149.383 57.1975 149.26 57.074 149.074 57.0123C148.951 56.8889 148.766 56.7654 148.642 56.6419L148.889 56.2098C148.889 56.1481 148.951 56.1481 148.951 56.1481C149.013 56.1481 149.013 56.0864 149.074 56.0864C149.136 56.0864 149.198 56.1481 149.321 56.2098C149.445 56.2716 149.507 56.3333 149.63 56.4568C149.753 56.5802 149.877 56.5802 150.062 56.7037C150.247 56.7654 150.432 56.8271 150.679 56.8271C150.865 56.8271 151.05 56.8271 151.235 56.7654C151.42 56.7037 151.544 56.6419 151.667 56.5185C151.79 56.395 151.852 56.2716 151.914 56.1481C151.976 56.0247 151.976 55.8395 151.976 55.6543C151.976 55.4691 151.914 55.2839 151.852 55.1605C151.79 55.037 151.667 54.9135 151.482 54.8518C151.358 54.7901 151.173 54.7284 150.988 54.6666C150.803 54.6049 150.618 54.5432 150.432 54.4814C150.247 54.4197 150.062 54.358 149.877 54.2963C149.692 54.2345 149.507 54.1111 149.383 53.9876C149.26 53.8642 149.136 53.679 149.013 53.4938C148.951 53.3086 148.889 53.0617 148.889 52.7531C148.889 52.5061 148.951 52.321 149.013 52.074C149.074 51.8889 149.26 51.6419 149.383 51.5185C149.507 51.395 149.753 51.2098 150 51.1481C150.247 51.0247 150.556 51.0247 150.865 51.0247C151.235 51.0247 151.544 51.0864 151.852 51.2098C152.161 51.3333 152.408 51.5185 152.655 51.7037L152.469 52.0123Z" fill="#123274"/>
<path d="M100.741 11.3951C100.556 11.2099 100.309 11.0247 100.062 10.963C99.8148 10.8395 99.5062 10.7778 99.1975 10.7778H94.6913C94.5062 10.7778 94.3827 10.7161 94.321 10.5926C94.1975 10.4692 94.1358 10.3457 94.1358 10.2223C94.1358 10.0371 94.1975 9.91362 94.321 9.85189C94.4444 9.72843 94.5679 9.66671 94.6913 9.66671H100C100.062 9.66671 100.123 9.60498 100.123 9.60498L100.37 8.18522C100.37 8.1235 100.309 8.06177 100.247 8.06177H94.6296C94.2593 8.06177 93.9506 8.1235 93.642 8.18522C93.3333 8.30868 93.0864 8.43214 92.8395 8.61732C92.5926 8.80251 92.4074 9.04942 92.2839 9.29634C92.1605 9.54325 92.0988 9.85189 92.0988 10.2223C92.0988 10.5926 92.1605 10.9013 92.2839 11.1482C92.4074 11.3951 92.5926 11.642 92.8395 11.8272C93.0864 12.0124 93.3333 12.1358 93.642 12.2593C93.9506 12.3828 94.2593 12.3828 94.6296 12.3828H98.7037C98.8889 12.3828 99.0123 12.4445 99.1358 12.5679C99.2593 12.6914 99.321 12.8149 99.321 13C99.321 13.1852 99.2593 13.3087 99.1358 13.4321C99.0741 13.4939 98.9506 13.5556 98.7654 13.5556H92.6543C92.5926 13.5556 92.5309 13.6173 92.5309 13.6173L92.2839 15.0371C92.2839 15.0988 92.3457 15.1605 92.4074 15.1605H99.1358C99.4444 15.1605 99.6914 15.0988 100 14.9753C100.247 14.8519 100.494 14.7284 100.679 14.5432C100.864 14.3581 101.049 14.1111 101.173 13.8642C101.296 13.6173 101.358 13.3087 101.358 12.9383C101.358 12.6297 101.296 12.321 101.173 12.0124C101.111 11.7655 100.988 11.5803 100.741 11.3951Z" fill="#123274"/>
<path d="M109.074 8.37037C109.012 8.37037 109.012 8.4321 109.012 8.49383V11.7037C109.012 12.1358 108.951 12.4444 108.827 12.6914C108.704 12.9383 108.58 13.1235 108.395 13.3086C108.21 13.4321 108.025 13.5556 107.778 13.6173C107.531 13.679 107.284 13.679 107.037 13.679H106.296C106.049 13.679 105.802 13.679 105.556 13.6173C105.309 13.5556 105.123 13.4938 104.938 13.3086C104.753 13.1852 104.63 12.9383 104.506 12.6914C104.383 12.4444 104.321 12.0741 104.321 11.7037V8.12346C104.321 8.06173 104.259 8 104.198 8L102.346 8.30864C102.284 8.30864 102.284 8.37037 102.284 8.4321V11.7037C102.284 12.2593 102.346 12.7531 102.531 13.1852C102.716 13.6173 102.963 13.9877 103.272 14.2963C103.58 14.6049 104.012 14.8519 104.506 15.037C105 15.2222 105.617 15.284 106.296 15.284H107.037C108.395 15.284 109.444 14.9753 110.062 14.2963C110.741 13.6173 111.049 12.7531 111.049 11.7037V8.12346C111.049 8.06173 110.988 8 110.926 8L109.074 8.37037Z" fill="#123274"/>
<path d="M90.9877 15.0988V8.12346C90.9877 8.06173 90.926 8 90.8642 8L89.0124 8.30864C88.9507 8.30864 88.9507 8.37037 88.9507 8.4321V15.0988C88.9507 15.1605 89.0124 15.2222 89.0741 15.2222H90.926C90.926 15.2222 90.9877 15.1605 90.9877 15.0988Z" fill="#123274"/>
<path d="M87.6544 8H81.8519C81.4815 8 81.1729 8.06173 80.8643 8.12346C80.5556 8.24691 80.3087 8.37037 80.0618 8.55556C79.8149 8.74074 79.6297 8.98765 79.5062 9.23457C79.3828 9.48148 79.321 9.79012 79.321 10.1605V15.0988C79.321 15.1605 79.3828 15.2222 79.4445 15.2222H81.2964C81.3581 15.2222 81.4198 15.1605 81.4198 15.0988V10.1605C81.4198 9.97531 81.4815 9.85185 81.605 9.79012C81.7285 9.66667 81.8519 9.60494 81.9754 9.60494H87.4692C87.5309 9.60494 87.5927 9.54321 87.5927 9.54321L87.8396 8.12346C87.7779 8.06173 87.7161 8 87.6544 8Z" fill="#123274"/>
<path d="M87.2223 10.4691C82.3458 10.9629 81.1729 12.0741 81.3581 14.1111C81.3581 13.0617 82.7778 12.4444 86.9754 12.1358C87.0371 12.1358 87.0371 12.0741 87.0988 12.0741L87.3457 10.5926C87.3457 10.5308 87.284 10.4691 87.2223 10.4691Z" fill="#123274"/>
<path d="M66.9752 8H66.3579V57.2593H66.9752V8Z" fill="#123274"/>
<path d="M20.5796 9.08809L8.70312 37.0695L36.6845 48.946L48.561 20.9646L20.5796 9.08809Z" fill="#F3BC35"/>
<path d="M31.336 14.4324C30.3434 16.7898 27.5518 17.9065 25.1944 16.9139C22.837 15.9213 21.7203 13.1296 22.7129 10.7722C23.7055 8.41485 26.4971 7.29819 28.8545 8.29077C31.2119 9.28336 32.3286 12.075 31.336 14.4324Z" fill="#123274"/>
<path d="M37.1674 40.86L25.2563 35.835L21.286 45.1406L16.8813 43.2174L22.7128 29.5693L38.9044 36.3934L37.1674 40.86Z" fill="#D20A18"/>
<path d="M20.6657 17.6583L32.4526 22.4972L35.9267 14.3083L39.835 15.9833L34.686 28.0805L19.1147 21.5666L20.6657 17.6583Z" fill="#1961AC"/>
<path d="M43.9293 23.7378L39.4626 22.0008L42.4404 14.6184L46.845 16.3554L43.9293 23.7378Z" fill="#D20A18"/>
<path d="M34.5618 30.1901L33.7554 31.9271L23.5193 27.5846L24.2637 25.8475L34.5618 30.1901Z" fill="#123274"/>
<path d="M2.5921 53.7463V54.4625H0.939991V55.4025H2.20552V56.0943H0.939991V57.0546H2.5921V57.7749H0V53.7463H2.5921Z" fill="#123274"/>
<path d="M4.08932 55.3731H4.23988C4.37824 55.3731 4.4759 55.3325 4.53694 55.2429L5.44438 53.9286C5.49728 53.8594 5.55424 53.8106 5.61935 53.7821C5.68039 53.7536 5.75771 53.7414 5.8513 53.7414H6.66514L5.47286 55.3691C5.38741 55.483 5.29788 55.5644 5.20022 55.6132C5.2694 55.6376 5.33451 55.6743 5.39148 55.719C5.44844 55.7638 5.50135 55.8248 5.55018 55.8981L6.76687 57.7659H5.93268C5.87978 57.7659 5.83502 57.7618 5.79433 57.7536C5.75771 57.7455 5.72108 57.7333 5.69667 57.7211C5.66818 57.7048 5.64377 57.6885 5.62342 57.6682C5.60308 57.6478 5.58273 57.6234 5.56645 57.5949L4.65495 56.1951C4.62239 56.1422 4.5817 56.1056 4.5288 56.0853C4.4759 56.0649 4.41079 56.0527 4.32127 56.0527H4.09339V57.7659H3.15747V53.7373H4.09339V55.3731H4.08932Z" fill="#123274"/>
<path d="M10.8768 57.7739H10.1525C10.0711 57.7739 10.006 57.7536 9.95719 57.717C9.90836 57.6803 9.87174 57.6315 9.84326 57.5705L9.60724 56.8706H8.07721L7.8412 57.5705C7.82085 57.6234 7.78423 57.6681 7.73133 57.7088C7.67843 57.7495 7.61332 57.7699 7.53601 57.7699H6.80762L8.36613 53.7413H9.3224L10.8768 57.7739ZM8.28881 56.2317H9.3875L9.0172 55.1289C8.98872 55.0598 8.96023 54.9743 8.92768 54.8807C8.8992 54.7871 8.86664 54.6813 8.83409 54.5715C8.8056 54.6854 8.77305 54.7871 8.74457 54.8848C8.71608 54.9824 8.68353 55.0638 8.65911 55.133L8.28881 56.2317Z" fill="#123274"/>
<path d="M13.6317 53.7455V54.4861H12.4964V57.774H11.5645V54.4861H10.4292V53.7455H13.6317Z" fill="#123274"/>
<path d="M16.5821 53.7455V54.4617H14.93V55.4017H16.1955V56.0934H14.93V57.0538H16.5821V57.774H13.99V53.7455H16.5821Z" fill="#123274"/>
<path d="M18.0756 56.2805V57.7699H17.1396V53.7413H18.4499C18.7429 53.7413 18.9911 53.7698 19.1946 53.8309C19.4021 53.8919 19.569 53.9733 19.6992 54.0791C19.8294 54.1849 19.923 54.311 19.984 54.4575C20.0451 54.604 20.0736 54.7627 20.0736 54.9336C20.0736 55.0638 20.0573 55.1859 20.0207 55.3039C19.984 55.4178 19.9352 55.5277 19.866 55.6254C19.7969 55.723 19.7114 55.8126 19.6137 55.8899C19.512 55.9672 19.3981 56.0323 19.2679 56.0811C19.3289 56.1096 19.3899 56.1503 19.4428 56.1991C19.4957 56.248 19.5446 56.3009 19.5853 56.366L20.4439 57.7699H19.5975C19.4428 57.7699 19.3289 57.7088 19.2597 57.5949L18.5883 56.427C18.5557 56.3782 18.5232 56.3416 18.4825 56.3171C18.4418 56.2927 18.3889 56.2805 18.3157 56.2805H18.0756V56.2805ZM18.0756 55.6376H18.4499C18.5761 55.6376 18.686 55.6213 18.7755 55.5888C18.865 55.5562 18.9382 55.5114 18.9952 55.4545C19.0522 55.3975 19.0929 55.3283 19.1214 55.2551C19.1458 55.1778 19.1621 55.0964 19.1621 55.0069C19.1621 54.8278 19.1051 54.6895 18.9871 54.5918C18.8731 54.4901 18.6941 54.4412 18.454 54.4412H18.0796V55.6376H18.0756Z" fill="#123274"/>
<path d="M21.6687 53.7413H20.7288V57.7699H21.6687V53.7413Z" fill="#123274"/>
<path d="M23.0034 53.7495C23.0319 53.7535 23.0563 53.7617 23.0766 53.7698C23.101 53.782 23.1214 53.7942 23.1377 53.8146C23.158 53.8349 23.1824 53.8593 23.2068 53.8878L25.1194 56.3049C25.1112 56.2276 25.1072 56.1544 25.1031 56.0811C25.099 56.0079 25.099 55.9387 25.099 55.8736V53.7413H25.921V57.7699H25.4327C25.3594 57.7699 25.2984 57.7576 25.2496 57.7373C25.2007 57.7129 25.1519 57.6763 25.1031 57.6152L23.2028 55.2144C23.2068 55.2836 23.215 55.3527 23.219 55.4219C23.2231 55.4911 23.2231 55.5521 23.2231 55.6091V57.7699H22.4011V53.7413H22.8935C22.9423 53.7454 22.9749 53.7454 23.0034 53.7495Z" fill="#123274"/>
<path d="M26.6697 57.774V53.7455H28.1509C28.4276 53.7455 28.6677 53.7699 28.863 53.8228C29.0583 53.8757 29.217 53.9489 29.3432 54.0425C29.4652 54.1361 29.5548 54.2501 29.6117 54.3844C29.6687 54.5186 29.6972 54.6692 29.6972 54.836C29.6972 54.9256 29.685 55.0151 29.6565 55.0965C29.6321 55.1819 29.5914 55.2592 29.5344 55.3325C29.4775 55.4057 29.4083 55.4749 29.3228 55.5319C29.2374 55.5929 29.1316 55.6417 29.0095 55.6865C29.274 55.7516 29.4734 55.8574 29.5995 55.9998C29.7257 56.1463 29.7908 56.3294 29.7908 56.5573C29.7908 56.7282 29.7582 56.891 29.6931 57.0375C29.628 57.184 29.5304 57.3142 29.4001 57.4241C29.274 57.5339 29.1153 57.6194 28.924 57.6804C28.7368 57.7415 28.5212 57.774 28.2811 57.774H26.6697ZM27.6015 55.4383H28.0858C28.1916 55.4383 28.2811 55.4301 28.3665 55.4139C28.4479 55.3976 28.5212 55.3732 28.5782 55.3366C28.6351 55.2999 28.6799 55.2511 28.7124 55.186C28.7409 55.1209 28.7572 55.0395 28.7572 54.9418C28.7572 54.8442 28.745 54.7669 28.7206 54.7018C28.6962 54.6407 28.6595 54.5878 28.6107 54.5471C28.5619 54.5064 28.4968 54.482 28.4235 54.4617C28.3462 54.4454 28.2567 54.4373 28.1509 54.4373H27.6015V55.4383ZM27.6015 56.0649V57.07H28.2608C28.3828 57.07 28.4846 57.0538 28.5619 57.0253C28.6392 56.9927 28.7002 56.952 28.745 56.9032C28.7897 56.8544 28.8182 56.7974 28.8386 56.7364C28.8549 56.6753 28.863 56.6102 28.863 56.5451C28.863 56.4719 28.8549 56.4068 28.8345 56.3457C28.8142 56.2888 28.7816 56.2359 28.7369 56.1952C28.688 56.1545 28.627 56.1219 28.5497 56.1016C28.4724 56.0812 28.3747 56.069 28.2567 56.069H27.6015V56.0649Z" fill="#123274"/>
<path d="M32.0164 57.0334C32.1426 57.0334 32.2525 57.0131 32.3542 56.9724C32.4519 56.9317 32.5373 56.8707 32.6024 56.7933C32.6716 56.716 32.7204 56.6224 32.757 56.5126C32.7937 56.4027 32.8099 56.2725 32.8099 56.13V53.7455H33.7459V56.13C33.7459 56.3783 33.7052 56.6021 33.6238 56.8096C33.5424 57.0171 33.4285 57.1921 33.2779 57.3427C33.1273 57.4932 32.9483 57.6072 32.7326 57.6886C32.521 57.774 32.2769 57.8147 32.0124 57.8147C31.7438 57.8147 31.4997 57.774 31.2881 57.6886C31.0765 57.6072 30.8933 57.4892 30.7428 57.3427C30.5922 57.1921 30.4783 57.0171 30.401 56.8096C30.3237 56.6021 30.283 56.3742 30.283 56.13V53.7455H31.2189V56.13C31.2189 56.2725 31.2352 56.3986 31.2718 56.5085C31.3084 56.6184 31.3572 56.716 31.4264 56.7933C31.4956 56.8707 31.577 56.9317 31.6746 56.9724C31.7764 57.0131 31.8903 57.0334 32.0164 57.0334Z" fill="#123274"/>
<path d="M35.3817 56.2805V57.7699H34.4458V53.7413H35.7561C36.0491 53.7413 36.2973 53.7698 36.5008 53.8309C36.7083 53.8919 36.8751 53.9733 37.0053 54.0791C37.1356 54.1849 37.2291 54.311 37.2902 54.4575C37.3512 54.604 37.3797 54.7627 37.3797 54.9336C37.3797 55.0638 37.3634 55.1859 37.3268 55.3039C37.2902 55.4178 37.2414 55.5277 37.1722 55.6254C37.103 55.723 37.0175 55.8126 36.9199 55.8899C36.8182 55.9672 36.7042 56.0323 36.5699 56.0811C36.631 56.1096 36.692 56.1503 36.7449 56.1991C36.7978 56.248 36.8466 56.3009 36.8873 56.366L37.7459 57.7699H36.8995C36.7449 57.7699 36.631 57.7088 36.5618 57.5949L35.8904 56.427C35.8578 56.3782 35.8253 56.3416 35.7846 56.3171C35.7439 56.2927 35.691 56.2805 35.6177 56.2805H35.3817V56.2805ZM35.3817 55.6376H35.7561C35.8822 55.6376 35.9921 55.6213 36.0816 55.5888C36.1711 55.5562 36.2444 55.5114 36.3014 55.4545C36.3583 55.3975 36.399 55.3283 36.4275 55.2551C36.4519 55.1778 36.4641 55.0964 36.4641 55.0069C36.4641 54.8278 36.4072 54.6895 36.2932 54.5918C36.1793 54.4901 36.0002 54.4412 35.7561 54.4412H35.3817V55.6376V55.6376Z" fill="#123274"/>
<path d="M40.6884 57.7129C40.4564 57.782 40.2123 57.8146 39.9559 57.8146C39.6263 57.8146 39.3211 57.7617 39.0485 57.66C38.7758 57.5542 38.5439 57.4117 38.3527 57.2286C38.1573 57.0455 38.0108 56.8298 37.905 56.5776C37.7992 56.3253 37.7463 56.0526 37.7463 55.7556C37.7463 55.4544 37.7952 55.1777 37.8969 54.9295C37.9946 54.6772 38.137 54.4615 38.3242 54.2784C38.5114 54.0953 38.7311 53.9529 38.9956 53.8512C39.2601 53.7494 39.5531 53.6965 39.8745 53.6965C40.0414 53.6965 40.2001 53.7128 40.3466 53.7372C40.4931 53.7657 40.6314 53.8023 40.7535 53.8512C40.8796 53.9 40.9936 53.957 41.0953 54.0221C41.197 54.0872 41.2906 54.1604 41.372 54.2377L41.0994 54.6487C41.0587 54.7138 41.0017 54.7545 40.9366 54.7667C40.8674 54.783 40.7983 54.7627 40.7169 54.7179C40.6436 54.6731 40.5744 54.6325 40.5093 54.604C40.4442 54.5714 40.3751 54.547 40.3099 54.5267C40.2408 54.5063 40.1716 54.49 40.0943 54.4819C40.017 54.4738 39.9315 54.4656 39.8379 54.4656C39.6629 54.4656 39.5042 54.4982 39.3659 54.5592C39.2275 54.6202 39.1055 54.7098 39.0078 54.8196C38.9101 54.9295 38.8328 55.0679 38.7799 55.2266C38.727 55.3853 38.6985 55.5602 38.6985 55.7515C38.6985 55.9672 38.727 56.1543 38.7881 56.3212C38.8491 56.488 38.9305 56.6264 39.0363 56.7403C39.1421 56.8543 39.2723 56.9397 39.4229 57.0007C39.5734 57.0618 39.7403 57.0903 39.9234 57.0903C40.0373 57.0903 40.139 57.0781 40.2286 57.0577C40.3181 57.0374 40.4076 57.0048 40.4971 56.9682V56.3578H40.0983C40.0414 56.3578 39.9925 56.3415 39.96 56.309C39.9274 56.2764 39.9112 56.2398 39.9112 56.191V55.6782H41.3435V57.3792C41.1401 57.5379 40.9203 57.6478 40.6884 57.7129Z" fill="#123274"/>
<path d="M44.4564 53.7007C44.6558 53.7007 44.8348 53.7292 44.9935 53.7861C45.1522 53.8431 45.2865 53.9245 45.4004 54.0303C45.5144 54.132 45.5998 54.2582 45.6609 54.4006C45.7219 54.543 45.7504 54.7017 45.7504 54.8726C45.7504 55.0191 45.73 55.1575 45.6893 55.2836C45.6487 55.4098 45.5917 55.5278 45.5184 55.6417C45.4452 55.7557 45.3638 55.8655 45.2661 55.9713C45.1726 56.0771 45.0708 56.1829 44.965 56.2928L44.1797 57.0985C44.2814 57.07 44.3791 57.0456 44.4808 57.0293C44.5784 57.013 44.672 57.0049 44.7575 57.0049H45.5103C45.6039 57.0049 45.6771 57.0293 45.73 57.0822C45.7829 57.1311 45.8114 57.2002 45.8114 57.2816V57.7781H42.9792V57.5014C42.9792 57.4485 42.9915 57.3915 43.0118 57.3304C43.0362 57.2694 43.0728 57.2124 43.1298 57.1636L44.2895 55.9957C44.3913 55.8981 44.4767 55.8004 44.55 55.7109C44.6232 55.6173 44.6843 55.5318 44.7331 55.4423C44.7819 55.3569 44.8145 55.2673 44.8429 55.1819C44.8674 55.0964 44.8796 55.0028 44.8796 54.9052C44.8796 54.7465 44.8389 54.6203 44.7656 54.5349C44.6883 54.4494 44.5703 54.4047 44.4157 54.4047C44.2895 54.4047 44.1797 54.4372 44.0942 54.5064C44.0047 54.5756 43.9437 54.657 43.9111 54.7587C43.8745 54.8604 43.8216 54.9255 43.7605 54.9622C43.6995 54.9947 43.61 55.0028 43.492 54.9825L43.0403 54.9011C43.0688 54.7017 43.1257 54.5267 43.2112 54.3762C43.2966 54.2256 43.3984 54.1035 43.5245 54.0018C43.6507 53.9001 43.7931 53.8268 43.9518 53.778C44.0983 53.7251 44.2692 53.7007 44.4564 53.7007Z" fill="#123274"/>
<path d="M50.2632 55.7558C50.2632 56.0488 50.2143 56.3174 50.1126 56.5697C50.0109 56.8179 49.8684 57.0376 49.6894 57.2208C49.5063 57.4079 49.2865 57.5504 49.0302 57.6562C48.7738 57.762 48.489 57.8149 48.1756 57.8149C47.8623 57.8149 47.5775 57.762 47.317 57.6562C47.0607 57.5504 46.8369 57.4039 46.6538 57.2208C46.4706 57.0376 46.3282 56.8179 46.2265 56.5697C46.1248 56.3174 46.0759 56.0488 46.0759 55.7558C46.0759 55.4669 46.1248 55.1943 46.2265 54.942C46.3282 54.6938 46.4706 54.474 46.6538 54.2869C46.8369 54.1037 47.0566 53.9572 47.317 53.8514C47.5734 53.7456 47.8623 53.6927 48.1756 53.6927C48.489 53.6927 48.7738 53.7456 49.0302 53.8514C49.2865 53.9572 49.5063 54.1037 49.6894 54.2869C49.8725 54.474 50.0149 54.6897 50.1126 54.9379C50.2103 55.1984 50.2632 55.4669 50.2632 55.7558ZM49.3069 55.7558C49.3069 55.5565 49.2825 55.3774 49.2296 55.2187C49.1767 55.06 49.1034 54.9257 49.0058 54.8118C48.9081 54.7019 48.7901 54.6165 48.6517 54.5595C48.5134 54.4985 48.3506 54.47 48.1756 54.47C47.9966 54.47 47.8338 54.4985 47.6914 54.5595C47.549 54.6165 47.431 54.7019 47.3333 54.8118C47.2357 54.9217 47.1624 55.06 47.1095 55.2187C47.0566 55.3774 47.0322 55.5565 47.0322 55.7558C47.0322 55.9552 47.0566 56.1384 47.1095 56.2971C47.1624 56.4558 47.2357 56.59 47.3333 56.704C47.431 56.8138 47.549 56.8993 47.6914 56.9563C47.8338 57.0132 47.9925 57.0417 48.1756 57.0417C48.3547 57.0417 48.5134 57.0132 48.6517 56.9563C48.7901 56.8993 48.9122 56.8138 49.0058 56.704C49.1034 56.5941 49.1767 56.4558 49.2296 56.2971C49.2784 56.1384 49.3069 55.9593 49.3069 55.7558Z" fill="#123274"/>
<path d="M51.9275 53.7007C52.1269 53.7007 52.3059 53.7292 52.4646 53.7861C52.6233 53.8431 52.7576 53.9245 52.8715 54.0303C52.9855 54.132 53.0709 54.2582 53.1279 54.4006C53.1889 54.543 53.2174 54.7017 53.2174 54.8726C53.2174 55.0191 53.1971 55.1575 53.1564 55.2836C53.1157 55.4098 53.0587 55.5278 52.9855 55.6417C52.9122 55.7557 52.8309 55.8655 52.7332 55.9713C52.6396 56.0771 52.5379 56.1829 52.4321 56.2928L51.6467 57.0985C51.7484 57.07 51.8461 57.0456 51.9478 57.0293C52.0455 57.013 52.1391 57.0049 52.2245 57.0049H52.9773C53.0709 57.0049 53.1401 57.0293 53.1971 57.0822C53.25 57.1311 53.2785 57.2002 53.2785 57.2816V57.7781H50.4463V57.5014C50.4463 57.4485 50.4585 57.3915 50.4788 57.3304C50.5033 57.2694 50.5399 57.2124 50.5968 57.1636L51.7566 55.9957C51.8583 55.8981 51.9438 55.8004 52.017 55.7109C52.0903 55.6173 52.1513 55.5318 52.2001 55.4423C52.249 55.3569 52.2856 55.2673 52.31 55.1819C52.3344 55.0964 52.3466 55.0028 52.3466 54.9052C52.3466 54.7465 52.31 54.6203 52.2327 54.5349C52.1554 54.4494 52.0414 54.4047 51.8827 54.4047C51.7566 54.4047 51.6467 54.4372 51.5613 54.5064C51.4758 54.5756 51.4148 54.657 51.3781 54.7587C51.3415 54.8604 51.2886 54.9255 51.2276 54.9622C51.1665 54.9947 51.077 55.0028 50.959 54.9825L50.5073 54.9011C50.5358 54.7017 50.5928 54.5267 50.6782 54.3762C50.7637 54.2256 50.8654 54.1035 50.9916 54.0018C51.1177 53.9001 51.2601 53.8268 51.4188 53.778C51.5735 53.7251 51.7444 53.7007 51.9275 53.7007Z" fill="#123274"/>
<path d="M55.439 53.7007C55.6383 53.7007 55.8174 53.7292 55.9761 53.7861C56.1348 53.8431 56.2691 53.9245 56.383 54.0303C56.497 54.132 56.5824 54.2582 56.6394 54.4006C56.7004 54.543 56.7289 54.7017 56.7289 54.8726C56.7289 55.0191 56.7086 55.1575 56.6679 55.2836C56.6272 55.4098 56.5702 55.5278 56.497 55.6417C56.4237 55.7557 56.3423 55.8655 56.2447 55.9713C56.1511 56.0771 56.0493 56.1829 55.9435 56.2928L55.1582 57.0985C55.2599 57.07 55.3576 57.0456 55.4593 57.0293C55.557 57.013 55.6506 57.0049 55.736 57.0049H56.4888C56.5824 57.0049 56.6516 57.0293 56.7086 57.0822C56.7615 57.1311 56.7899 57.2002 56.7899 57.2816V57.7781H53.9578V57.5014C53.9578 57.4485 53.97 57.3915 53.9903 57.3304C54.0147 57.2694 54.0514 57.2124 54.1083 57.1636L55.2681 55.9957C55.3698 55.8981 55.4552 55.8004 55.5285 55.7109C55.6017 55.6173 55.6628 55.5318 55.7116 55.4423C55.7604 55.3569 55.797 55.2673 55.8215 55.1819C55.8459 55.0964 55.8581 55.0028 55.8581 54.9052C55.8581 54.7465 55.8215 54.6203 55.7441 54.5349C55.6668 54.4494 55.5529 54.4047 55.3942 54.4047C55.2681 54.4047 55.1582 54.4372 55.0727 54.5064C54.9873 54.5756 54.9262 54.657 54.8896 54.7587C54.853 54.8604 54.8001 54.9255 54.7391 54.9622C54.678 54.9947 54.5885 55.0028 54.4705 54.9825L54.0188 54.9011C54.0473 54.7017 54.1043 54.5267 54.1897 54.3762C54.2752 54.2256 54.3769 54.1035 54.503 54.0018C54.6292 53.9001 54.7716 53.8268 54.9303 53.778C55.0849 53.7251 55.2558 53.7007 55.439 53.7007Z" fill="#123274"/>
</svg>
