<svg width="40" height="41" viewBox="0 0 40 41" fill="none" xmlns="http://www.w3.org/2000/svg">
<g clip-path="url(#clip0_12772_593)">
<path fill-rule="evenodd" clip-rule="evenodd" d="M20 36.5C28.8366 36.5 36 29.3366 36 20.5C36 11.6634 28.8366 4.5 20 4.5C11.1634 4.5 4 11.6634 4 20.5C4 29.3366 11.1634 36.5 20 36.5ZM24.5085 18.367L24.0084 21.6244L21.3827 21.625V29.5H17.8614V21.625H15V18.3676H17.8614V15.8847C17.8614 13.0604 19.5439 11.5 22.1179 11.5C23.3509 11.5 24.6401 11.7199 24.6401 11.7199V14.4931H23.2192C21.8192 14.4931 21.3827 15.3621 21.3827 16.2531V18.367H24.5085Z" fill="#1268B3"/>
<path d="M9.53987 37.5466C11.9983 39.0551 14.754 40.0141 17.6178 40.3576C20.4817 40.7012 23.3859 40.4212 26.1314 39.537C28.8769 38.6527 31.3986 37.185 33.5237 35.2347C35.6487 33.2843 37.3267 30.8974 38.4426 28.2376C39.5585 25.5778 40.0859 22.7081 39.9886 19.8254C39.8913 16.9427 39.1717 14.1151 37.879 11.5366C36.5863 8.95811 34.7512 6.68974 32.4995 4.88708C30.2478 3.08442 27.6328 1.79013 24.834 1.09297L23.8672 4.97438C26.1063 5.5321 28.1982 6.56754 29.9996 8.00967C31.8009 9.45179 33.269 11.2665 34.3032 13.3293C35.3373 15.3921 35.9131 17.6541 35.9909 19.9603C36.0687 22.2665 35.6468 24.5623 34.7541 26.6901C33.8614 28.8179 32.5189 30.7274 30.8189 32.2877C29.1189 33.848 27.1015 35.0222 24.9051 35.7296C22.7087 36.437 20.3853 36.6609 18.0942 36.3861C15.8032 36.1113 13.5986 35.3441 11.6319 34.1373L9.53987 37.5466Z" fill="#FDB714"/>
</g>
<defs>
<clipPath id="clip0_12772_593">
<rect width="40" height="40" fill="white" transform="translate(0 0.5)"/>
</clipPath>
</defs>
</svg>
