<svg width="40" height="41" viewBox="0 0 40 41" fill="none" xmlns="http://www.w3.org/2000/svg">
<g clip-path="url(#clip0_12772_588)">
<path d="M9.53987 37.5466C11.9983 39.0551 14.754 40.0141 17.6178 40.3576C20.4817 40.7012 23.3859 40.4212 26.1314 39.537C28.8769 38.6527 31.3986 37.185 33.5237 35.2347C35.6487 33.2843 37.3267 30.8974 38.4426 28.2376C39.5585 25.5778 40.0859 22.7081 39.9886 19.8254C39.8913 16.9427 39.1717 14.1151 37.879 11.5366C36.5863 8.95811 34.7512 6.68974 32.4995 4.88708C30.2478 3.08442 27.6328 1.79013 24.834 1.09297L23.8672 4.97438C26.1063 5.5321 28.1982 6.56754 29.9996 8.00967C31.8009 9.45179 33.269 11.2665 34.3032 13.3293C35.3373 15.3921 35.9131 17.6541 35.9909 19.9603C36.0687 22.2665 35.6468 24.5623 34.7541 26.6901C33.8614 28.8179 32.5189 30.7274 30.8189 32.2877C29.1189 33.848 27.1015 35.0222 24.9051 35.7296C22.7087 36.437 20.3853 36.6609 18.0942 36.3861C15.8032 36.1113 13.5986 35.3441 11.6319 34.1373L9.53987 37.5466Z" fill="#8ED8F8"/>
<path fill-rule="evenodd" clip-rule="evenodd" d="M20 36.5C28.8366 36.5 36 29.3366 36 20.5C36 11.6634 28.8366 4.5 20 4.5C11.1634 4.5 4 11.6634 4 20.5C4 29.3366 11.1634 36.5 20 36.5ZM28.942 16.8128C28.9319 16.057 28.7902 15.3087 28.5232 14.6015C28.2917 14.0049 27.938 13.4631 27.4848 13.0106C27.0317 12.5582 26.489 12.2052 25.8914 11.974C25.192 11.7119 24.4532 11.5702 23.7064 11.5549C22.7448 11.512 22.4399 11.5 19.999 11.5C17.5581 11.5 17.2452 11.5 16.2906 11.5549C15.5441 11.5703 14.8057 11.712 14.1066 11.974C13.5089 12.205 12.9661 12.558 12.513 13.0104C12.0598 13.4629 11.7062 14.0048 11.4748 14.6015C11.2117 15.2991 11.0701 16.0365 11.056 16.7818C11.013 17.7428 11 18.0472 11 20.484C11 22.9209 11 23.2322 11.056 24.1862C11.071 24.9326 11.2119 25.6691 11.4748 26.3686C11.7066 26.9651 12.0604 27.5068 12.5138 27.959C12.9671 28.4113 13.5099 28.7641 14.1076 28.9951C14.8047 29.2677 15.5434 29.4196 16.2916 29.4441C17.2542 29.487 17.5591 29.5 20 29.5C22.4409 29.5 22.7538 29.5 23.7084 29.4441C24.4552 29.4294 25.1941 29.2881 25.8934 29.026C26.4908 28.7946 27.0334 28.4414 27.4865 27.989C27.9396 27.5367 28.2934 26.995 28.5252 26.3986C28.7881 25.7 28.929 24.9636 28.944 24.2162C28.987 23.2562 29 22.9518 29 20.514L29 20.4804V20.4802C28.998 18.0742 28.9977 17.7633 28.942 16.8128ZM19.993 25.0923C17.4401 25.0923 15.3721 23.0277 15.3721 20.479C15.3721 17.9304 17.4401 15.8658 19.993 15.8658C21.2186 15.8658 22.3939 16.3518 23.2605 17.217C24.1271 18.0821 24.614 19.2555 24.614 20.479C24.614 21.7026 24.1271 22.876 23.2605 23.7411C22.3939 24.6063 21.2186 25.0923 19.993 25.0923ZM24.7979 16.7709C24.2011 16.7709 23.7203 16.2899 23.7203 15.6951C23.7203 15.5539 23.7482 15.4141 23.8023 15.2837C23.8565 15.1532 23.9358 15.0347 24.0358 14.9348C24.1358 14.835 24.2545 14.7558 24.3852 14.7018C24.5159 14.6477 24.6559 14.6199 24.7974 14.6199C24.9388 14.6199 25.0789 14.6477 25.2095 14.7018C25.3402 14.7558 25.4589 14.835 25.5589 14.9348C25.6589 15.0347 25.7383 15.1532 25.7924 15.2837C25.8465 15.4141 25.8744 15.5539 25.8744 15.6951C25.8744 16.2899 25.3926 16.7709 24.7979 16.7709ZM19.9931 23.4757C21.6509 23.4757 22.9948 22.1341 22.9948 20.4791C22.9948 18.8241 21.6509 17.4824 19.9931 17.4824C18.3354 17.4824 16.9915 18.8241 16.9915 20.4791C16.9915 22.1341 18.3354 23.4757 19.9931 23.4757Z" fill="#1268B3"/>
</g>
<defs>
<clipPath id="clip0_12772_588">
<rect width="40" height="40" fill="white" transform="translate(0 0.5)"/>
</clipPath>
</defs>
</svg>
