<svg width="40" height="41" viewBox="0 0 40 41" fill="none" xmlns="http://www.w3.org/2000/svg">
<g clip-path="url(#clip0_12772_598)">
<path d="M9.53987 37.5466C11.9983 39.0551 14.754 40.0141 17.6178 40.3576C20.4817 40.7012 23.3859 40.4212 26.1314 39.537C28.8769 38.6527 31.3986 37.185 33.5237 35.2347C35.6487 33.2843 37.3267 30.8974 38.4426 28.2376C39.5585 25.5778 40.0859 22.7081 39.9886 19.8254C39.8913 16.9427 39.1717 14.1151 37.879 11.5366C36.5863 8.95811 34.7512 6.68974 32.4995 4.88708C30.2478 3.08442 27.6328 1.79013 24.834 1.09297L23.8672 4.97438C26.1063 5.5321 28.1982 6.56754 29.9996 8.00967C31.8009 9.45179 33.269 11.2665 34.3032 13.3293C35.3373 15.3921 35.9131 17.6541 35.9909 19.9603C36.0687 22.2665 35.6468 24.5623 34.7541 26.6901C33.8614 28.8179 32.5189 30.7274 30.8189 32.2877C29.1189 33.848 27.1015 35.0222 24.9051 35.7296C22.7087 36.437 20.3853 36.6609 18.0942 36.3861C15.8032 36.1113 13.5986 35.3441 11.6319 34.1373L9.53987 37.5466Z" fill="#C9C6AA"/>
<path fill-rule="evenodd" clip-rule="evenodd" d="M20 36.5C28.8366 36.5 36 29.3366 36 20.5C36 11.6634 28.8366 4.5 20 4.5C11.1634 4.5 4 11.6634 4 20.5C4 29.3366 11.1634 36.5 20 36.5ZM26.8507 15.7388C27.6567 15.6493 28.3731 15.4701 29 15.2015C28.5522 15.9179 27.9254 16.5448 27.209 17.0821V17.5299C27.209 22.3657 23.4478 27.8284 16.7313 27.8284C14.6716 27.8284 12.7015 27.2015 11 26.1269C11.3582 26.2164 11.6269 26.2164 11.8955 26.2164C13.597 26.2164 15.209 25.6791 16.4627 24.694C14.8507 24.694 13.5075 23.6194 13.0597 22.1866C13.3284 22.2761 13.5075 22.2761 13.7761 22.2761C14.0729 22.2761 14.3082 22.2147 14.5838 22.1427C14.6409 22.1277 14.6997 22.1124 14.7612 22.097C13.0597 21.7388 11.806 20.306 11.806 18.5149C12.2537 18.7836 12.8806 18.9627 13.4179 19.0522C12.4328 18.3358 11.806 17.2612 11.806 16.0075C11.806 15.291 11.9851 14.6642 12.3433 14.2164C14.1343 16.3657 16.8209 17.7985 19.8657 17.8881C19.7761 17.6194 19.7761 17.3507 19.7761 17.0821C19.7761 15.1119 21.3881 13.5 23.4478 13.5C24.5224 13.5 25.5075 13.9478 26.1343 14.6642C26.9403 14.4851 27.7463 14.2164 28.4627 13.7687C28.194 14.5746 27.5672 15.291 26.8507 15.7388Z" fill="#1268B3"/>
</g>
<defs>
<clipPath id="clip0_12772_598">
<rect width="40" height="40" fill="white" transform="translate(0 0.5)"/>
</clipPath>
</defs>
</svg>
