<svg width="40" height="40" viewBox="0 0 40 40" fill="none" xmlns="http://www.w3.org/2000/svg">
<path d="M9.53987 37.0466C11.9983 38.5551 14.754 39.5141 17.6178 39.8576C20.4817 40.2012 23.3859 39.9212 26.1314 39.037C28.8769 38.1527 31.3986 36.685 33.5237 34.7347C35.6487 32.7843 37.3267 30.3974 38.4426 27.7376C39.5585 25.0778 40.0859 22.2081 39.9886 19.3254C39.8913 16.4427 39.1717 13.6151 37.879 11.0366C36.5863 8.45811 34.7512 6.18974 32.4995 4.38708C30.2478 2.58442 27.6328 1.29013 24.834 0.592975L23.8672 4.47438C26.1063 5.0321 28.1982 6.06754 29.9996 7.50967C31.8009 8.95179 33.269 10.7665 34.3032 12.8293C35.3373 14.8921 35.9131 17.1541 35.9909 19.4603C36.0687 21.7665 35.6468 24.0623 34.7541 26.1901C33.8614 28.3179 32.5189 30.2274 30.8189 31.7877C29.1189 33.348 27.1015 34.5222 24.9051 35.2296C22.7087 35.937 20.3853 36.1609 18.0942 35.8861C15.8032 35.6113 13.5986 34.8441 11.6319 33.6373L9.53987 37.0466Z" fill="#FDB714"/>
<path fill-rule="evenodd" clip-rule="evenodd" d="M20 36C28.8366 36 36 28.8366 36 20C36 11.1634 28.8366 4 20 4C11.1634 4 4 11.1634 4 20C4 28.8366 11.1634 36 20 36ZM26 25.2792C26 23.1032 23.254 22.5391 20 22.5391C16.764 22.5391 14 23.0832 14 25.26C14 27.436 16.7468 28 20 28C23.236 28 26 27.456 26 25.2792ZM23.9705 16.2328C23.9705 13.8832 22.2043 12 20 12C17.7964 12 16.0295 13.8832 16.0295 16.2328C16.0295 18.5825 17.7964 20.4665 20 20.4665C22.2043 20.4665 23.9705 18.5825 23.9705 16.2328Z" fill="#F04E30"/>
</svg>
