<svg width="40" height="41" viewBox="0 0 40 41" fill="none" xmlns="http://www.w3.org/2000/svg">
<g clip-path="url(#clip0_12772_583)">
<path d="M9.53987 37.5466C11.9983 39.0551 14.754 40.0141 17.6178 40.3576C20.4817 40.7012 23.3859 40.4212 26.1314 39.537C28.8769 38.6527 31.3986 37.185 33.5237 35.2347C35.6487 33.2843 37.3267 30.8974 38.4426 28.2376C39.5585 25.5778 40.0859 22.7081 39.9886 19.8254C39.8913 16.9427 39.1717 14.1151 37.879 11.5366C36.5863 8.95811 34.7512 6.68974 32.4995 4.88708C30.2478 3.08442 27.6328 1.79013 24.834 1.09297L23.8672 4.97438C26.1063 5.5321 28.1982 6.56754 29.9996 8.00967C31.8009 9.45179 33.269 11.2665 34.3032 13.3293C35.3373 15.3921 35.9131 17.6541 35.9909 19.9603C36.0687 22.2665 35.6468 24.5623 34.7541 26.6901C33.8614 28.8179 32.5189 30.7274 30.8189 32.2877C29.1189 33.848 27.1015 35.0222 24.9051 35.7296C22.7087 36.437 20.3853 36.6609 18.0942 36.3861C15.8032 36.1113 13.5986 35.3441 11.6319 34.1373L9.53987 37.5466Z" fill="#68AD45"/>
<path fill-rule="evenodd" clip-rule="evenodd" d="M20 36.5C28.8366 36.5 36 29.3366 36 20.5C36 11.6634 28.8366 4.5 20 4.5C11.1634 4.5 4 11.6634 4 20.5C4 29.3366 11.1634 36.5 20 36.5ZM10 15.5C10.1562 22.9955 13.9039 27.5 20.4745 27.5H20.8468V23.2117C23.2613 23.452 25.0871 25.2177 25.8198 27.5H29.2312C28.2943 24.0886 25.8318 22.2027 24.2943 21.482C25.8318 20.5931 27.994 18.4309 28.5105 15.5H25.4114C24.7387 17.8784 22.7447 20.0405 20.8468 20.2447V15.5H17.7477V23.8123C15.8258 23.3318 13.3994 21.0015 13.2913 15.5H10Z" fill="#1268B3"/>
</g>
<defs>
<clipPath id="clip0_12772_583">
<rect width="40" height="40" fill="white" transform="translate(0 0.5)"/>
</clipPath>
</defs>
</svg>
